<svg id="Capa_1" data-name="Capa 1" xmlns="http://www.w3.org/2000/svg" viewBox="0 0 264.09 129.39"><defs><style>.cls-1{fill:#00f135;}</style></defs><path d="M21.62,118.75H34.85l4.24,25.62h1.13l5.65-25.62H56.23l5.65,25.62H63l4.24-25.62H80.48l-7.67,39.56H55.19l-3.57-19H50.49l-3.58,19H29.3Z" transform="translate(-21.62 -78.2)"/><path d="M83.06,118.75h13v39.56h-13Z" transform="translate(-21.62 -78.2)"/><path d="M127.7,158.31l-5.37-10.22h-9.89v10.22h-13V118.75h22.65c11,0,17.14,4.71,17.14,15.12a13.41,13.41,0,0,1-5.74,11.44l7.06,13Zm-15.26-20h8.71c3.3,0,5-1.6,5-4.38s-1.7-4.38-5-4.38h-8.71Z" transform="translate(-21.62 -78.2)"/><path d="M143.09,118.75h35.65v10.46h-22.6v5h21.75v8.57H156.14v5h22.6v10.45H143.09Z" transform="translate(-21.62 -78.2)"/><path d="M223.66,138.53c0,11.35-5.66,19.78-21.76,19.78H182V118.75H201.9C218,118.75,223.66,127.14,223.66,138.53Zm-13.1,0c0-6.36-3.57-8.85-8.66-8.85h-6.78v17.7h6.78C207,147.38,210.56,144.84,210.56,138.53Z" transform="translate(-21.62 -78.2)"/><path class="cls-1" d="M245.25,164.59l23.7,2.17c11.38,1,17.68,6.73,16.65,18S277.35,200.4,266,199.36l-10-.91-.84,9.14-13.76-1.26Zm20.58,23.23c3.33.3,5.61-1.14,5.91-4.37s-1.69-5.07-5-5.37l-8.8-.8-.89,9.74Z" transform="translate(-21.62 -78.2)"/><path class="cls-1" d="M196.36,183.87l2.16-23.55,13.86,1.27-2.12,23.21c-.47,5.16,1.52,8.6,7,9.1s8.15-2.51,8.62-7.68l7.53-79.76L247,107.87q-3.69,39.93-7.4,79.86c-1.24,13.56-9,19-23.41,17.7S195.13,197.34,196.36,183.87Z" transform="translate(-21.62 -78.2)"/><polygon class="cls-1" points="221.43 0 228.51 15.34 235.59 30.68 218.77 29.14 201.95 27.6 211.69 13.8 221.43 0"/></svg>