<svg id="Capa_1" data-name="Capa 1" xmlns="http://www.w3.org/2000/svg" viewBox="0 0 265.03 129.39"><defs><style>.cls-1{font-size:56.5px;font-family:IntegralCF-Bold, Integral CF;font-weight:700;}.cls-2{fill:#00f135;}</style></defs><text class="cls-1" transform="translate(0 80.11)">WIRED</text><path class="cls-2" d="M245.25,164.59l23.7,2.17c11.38,1,17.68,6.73,16.65,18S277.35,200.4,266,199.36l-10-.91-.84,9.14-13.76-1.26Zm20.58,23.23c3.33.3,5.61-1.14,5.91-4.37s-1.69-5.07-5-5.37l-8.8-.8-.89,9.74Z" transform="translate(-20.68 -78.2)"/><path class="cls-2" d="M196.36,183.87l2.16-23.55,13.86,1.27-2.12,23.21c-.47,5.16,1.52,8.6,7,9.1s8.15-2.51,8.62-7.68l7.53-79.76L247,107.87q-3.69,39.93-7.4,79.86c-1.24,13.56-9,19-23.41,17.7S195.13,197.34,196.36,183.87Z" transform="translate(-20.68 -78.2)"/><polygon class="cls-2" points="222.37 0 229.45 15.34 236.53 30.68 219.71 29.14 202.89 27.6 212.63 13.8 222.37 0"/></svg>